<mxfile host="app.diagrams.net" agent="Mozilla/5.0 (Windows NT 10.0; Win64; x64) AppleWebKit/537.36 (KHTML, like Gecko) Chrome/129.0.0.0 Safari/537.36" version="24.7.16">
  <diagram name="PÃ¡gina-1" id="4xrPNREQ3YS6yR4rbZL1">
    <mxGraphModel dx="1050" dy="1726" grid="1" gridSize="10" guides="1" tooltips="1" connect="1" arrows="1" fold="1" page="1" pageScale="1" pageWidth="827" pageHeight="1169" math="0" shadow="0">
      <root>
        <mxCell id="0" />
        <mxCell id="1" parent="0" />
        <mxCell id="bUCBHGYr6xIvT3issKBq-14" style="edgeStyle=orthogonalEdgeStyle;rounded=0;orthogonalLoop=1;jettySize=auto;html=1;entryX=0;entryY=0.5;entryDx=0;entryDy=0;endArrow=none;endFill=0;curved=1;" edge="1" parent="1" source="bUCBHGYr6xIvT3issKBq-1" target="bUCBHGYr6xIvT3issKBq-7">
          <mxGeometry relative="1" as="geometry" />
        </mxCell>
        <mxCell id="bUCBHGYr6xIvT3issKBq-15" style="edgeStyle=orthogonalEdgeStyle;rounded=0;orthogonalLoop=1;jettySize=auto;html=1;endArrow=none;endFill=0;curved=1;" edge="1" parent="1" source="bUCBHGYr6xIvT3issKBq-1" target="bUCBHGYr6xIvT3issKBq-9">
          <mxGeometry relative="1" as="geometry" />
        </mxCell>
        <mxCell id="bUCBHGYr6xIvT3issKBq-16" style="edgeStyle=orthogonalEdgeStyle;rounded=0;orthogonalLoop=1;jettySize=auto;html=1;endArrow=none;endFill=0;curved=1;entryX=0;entryY=0.5;entryDx=0;entryDy=0;" edge="1" parent="1" source="bUCBHGYr6xIvT3issKBq-1" target="bUCBHGYr6xIvT3issKBq-10">
          <mxGeometry relative="1" as="geometry">
            <Array as="points">
              <mxPoint x="250" y="440" />
              <mxPoint x="250" y="530" />
            </Array>
          </mxGeometry>
        </mxCell>
        <mxCell id="bUCBHGYr6xIvT3issKBq-19" style="edgeStyle=orthogonalEdgeStyle;rounded=0;orthogonalLoop=1;jettySize=auto;html=1;entryX=0;entryY=0.5;entryDx=0;entryDy=0;endArrow=none;endFill=0;curved=1;" edge="1" parent="1" source="bUCBHGYr6xIvT3issKBq-1" target="bUCBHGYr6xIvT3issKBq-5">
          <mxGeometry relative="1" as="geometry">
            <Array as="points">
              <mxPoint x="150" y="440" />
              <mxPoint x="150" y="110" />
            </Array>
          </mxGeometry>
        </mxCell>
        <mxCell id="bUCBHGYr6xIvT3issKBq-1" value="Professor" style="shape=umlActor;verticalLabelPosition=bottom;verticalAlign=top;html=1;" vertex="1" parent="1">
          <mxGeometry x="30" y="410" width="30" height="60" as="geometry" />
        </mxCell>
        <mxCell id="bUCBHGYr6xIvT3issKBq-4" value="Sistema" style="shape=umlFrame;whiteSpace=wrap;html=1;pointerEvents=0;" vertex="1" parent="1">
          <mxGeometry x="80" y="40" width="560" height="800" as="geometry" />
        </mxCell>
        <mxCell id="bUCBHGYr6xIvT3issKBq-5" value="Autenticar-se no sistema" style="ellipse;whiteSpace=wrap;html=1;" vertex="1" parent="1">
          <mxGeometry x="490" y="80" width="120" height="80" as="geometry" />
        </mxCell>
        <mxCell id="bUCBHGYr6xIvT3issKBq-6" value="Sair do sistema" style="ellipse;whiteSpace=wrap;html=1;" vertex="1" parent="1">
          <mxGeometry x="290" y="140" width="120" height="80" as="geometry" />
        </mxCell>
        <mxCell id="bUCBHGYr6xIvT3issKBq-7" value="Registrar atividades" style="ellipse;whiteSpace=wrap;html=1;" vertex="1" parent="1">
          <mxGeometry x="290" y="260" width="120" height="80" as="geometry" />
        </mxCell>
        <mxCell id="bUCBHGYr6xIvT3issKBq-37" style="edgeStyle=orthogonalEdgeStyle;rounded=0;orthogonalLoop=1;jettySize=auto;html=1;curved=1;dashed=1;" edge="1" parent="1" source="bUCBHGYr6xIvT3issKBq-9" target="bUCBHGYr6xIvT3issKBq-10">
          <mxGeometry relative="1" as="geometry" />
        </mxCell>
        <mxCell id="bUCBHGYr6xIvT3issKBq-38" value="&amp;lt;&amp;lt;extend&amp;gt;&amp;gt;" style="edgeLabel;html=1;align=center;verticalAlign=middle;resizable=0;points=[];" vertex="1" connectable="0" parent="bUCBHGYr6xIvT3issKBq-37">
          <mxGeometry x="0.0207" y="-4" relative="1" as="geometry">
            <mxPoint as="offset" />
          </mxGeometry>
        </mxCell>
        <mxCell id="bUCBHGYr6xIvT3issKBq-9" value="Excluir turmas" style="ellipse;whiteSpace=wrap;html=1;" vertex="1" parent="1">
          <mxGeometry x="340" y="360" width="120" height="80" as="geometry" />
        </mxCell>
        <mxCell id="bUCBHGYr6xIvT3issKBq-10" value="Visualizar turmas" style="ellipse;whiteSpace=wrap;html=1;" vertex="1" parent="1">
          <mxGeometry x="300" y="504" width="120" height="80" as="geometry" />
        </mxCell>
        <mxCell id="bUCBHGYr6xIvT3issKBq-11" value="Registrar turmas&amp;nbsp;" style="ellipse;whiteSpace=wrap;html=1;" vertex="1" parent="1">
          <mxGeometry x="300" y="620" width="120" height="80" as="geometry" />
        </mxCell>
        <mxCell id="bUCBHGYr6xIvT3issKBq-12" value="Visualizar atividades" style="ellipse;whiteSpace=wrap;html=1;" vertex="1" parent="1">
          <mxGeometry x="300" y="730" width="120" height="80" as="geometry" />
        </mxCell>
        <mxCell id="bUCBHGYr6xIvT3issKBq-13" style="edgeStyle=orthogonalEdgeStyle;rounded=0;orthogonalLoop=1;jettySize=auto;html=1;entryX=-0.007;entryY=0.643;entryDx=0;entryDy=0;entryPerimeter=0;endArrow=none;endFill=0;curved=1;" edge="1" parent="1" source="bUCBHGYr6xIvT3issKBq-1" target="bUCBHGYr6xIvT3issKBq-6">
          <mxGeometry relative="1" as="geometry" />
        </mxCell>
        <mxCell id="bUCBHGYr6xIvT3issKBq-17" style="edgeStyle=orthogonalEdgeStyle;rounded=0;orthogonalLoop=1;jettySize=auto;html=1;entryX=0;entryY=0.625;entryDx=0;entryDy=0;entryPerimeter=0;endArrow=none;endFill=0;curved=1;" edge="1" parent="1" source="bUCBHGYr6xIvT3issKBq-1" target="bUCBHGYr6xIvT3issKBq-11">
          <mxGeometry relative="1" as="geometry" />
        </mxCell>
        <mxCell id="bUCBHGYr6xIvT3issKBq-18" style="edgeStyle=orthogonalEdgeStyle;rounded=0;orthogonalLoop=1;jettySize=auto;html=1;entryX=-0.007;entryY=0.653;entryDx=0;entryDy=0;entryPerimeter=0;endArrow=none;endFill=0;curved=1;" edge="1" parent="1" source="bUCBHGYr6xIvT3issKBq-1" target="bUCBHGYr6xIvT3issKBq-12">
          <mxGeometry relative="1" as="geometry" />
        </mxCell>
        <mxCell id="bUCBHGYr6xIvT3issKBq-25" value="" style="endArrow=classic;html=1;rounded=0;exitX=1;exitY=0.5;exitDx=0;exitDy=0;entryX=0.347;entryY=1;entryDx=0;entryDy=0;dashed=1;edgeStyle=orthogonalEdgeStyle;curved=1;entryPerimeter=0;" edge="1" parent="1" source="bUCBHGYr6xIvT3issKBq-6" target="bUCBHGYr6xIvT3issKBq-5">
          <mxGeometry width="50" height="50" relative="1" as="geometry">
            <mxPoint x="400" y="370" as="sourcePoint" />
            <mxPoint x="450" y="320" as="targetPoint" />
            <Array as="points">
              <mxPoint x="500" y="190" />
              <mxPoint x="500" y="180" />
              <mxPoint x="532" y="180" />
            </Array>
          </mxGeometry>
        </mxCell>
        <mxCell id="bUCBHGYr6xIvT3issKBq-26" value="&amp;lt;&amp;lt;include&amp;gt;&amp;gt;" style="edgeLabel;html=1;align=center;verticalAlign=middle;resizable=0;points=[];" vertex="1" connectable="0" parent="bUCBHGYr6xIvT3issKBq-25">
          <mxGeometry x="-0.1136" y="2" relative="1" as="geometry">
            <mxPoint as="offset" />
          </mxGeometry>
        </mxCell>
        <mxCell id="bUCBHGYr6xIvT3issKBq-27" value="" style="endArrow=classic;html=1;rounded=0;dashed=1;edgeStyle=orthogonalEdgeStyle;curved=1;" edge="1" parent="1">
          <mxGeometry width="50" height="50" relative="1" as="geometry">
            <mxPoint x="400" y="290" as="sourcePoint" />
            <mxPoint x="554" y="160" as="targetPoint" />
            <Array as="points">
              <mxPoint x="400" y="292" />
              <mxPoint x="400" y="290" />
              <mxPoint x="424" y="290" />
              <mxPoint x="424" y="221" />
              <mxPoint x="534" y="221" />
              <mxPoint x="534" y="180" />
              <mxPoint x="554" y="180" />
            </Array>
          </mxGeometry>
        </mxCell>
        <mxCell id="bUCBHGYr6xIvT3issKBq-28" value="&amp;lt;&amp;lt;include&amp;gt;&amp;gt;" style="edgeLabel;html=1;align=center;verticalAlign=middle;resizable=0;points=[];" vertex="1" connectable="0" parent="bUCBHGYr6xIvT3issKBq-27">
          <mxGeometry x="-0.1136" y="2" relative="1" as="geometry">
            <mxPoint as="offset" />
          </mxGeometry>
        </mxCell>
        <mxCell id="bUCBHGYr6xIvT3issKBq-31" value="" style="endArrow=classic;html=1;rounded=0;exitX=1;exitY=0.5;exitDx=0;exitDy=0;entryX=0.5;entryY=1;entryDx=0;entryDy=0;dashed=1;edgeStyle=orthogonalEdgeStyle;curved=1;" edge="1" parent="1" source="bUCBHGYr6xIvT3issKBq-10">
          <mxGeometry width="50" height="50" relative="1" as="geometry">
            <mxPoint x="440" y="520" as="sourcePoint" />
            <mxPoint x="564" y="160" as="targetPoint" />
          </mxGeometry>
        </mxCell>
        <mxCell id="bUCBHGYr6xIvT3issKBq-32" value="&amp;lt;&amp;lt;include&amp;gt;&amp;gt;" style="edgeLabel;html=1;align=center;verticalAlign=middle;resizable=0;points=[];" vertex="1" connectable="0" parent="bUCBHGYr6xIvT3issKBq-31">
          <mxGeometry x="-0.1136" y="2" relative="1" as="geometry">
            <mxPoint x="-52" as="offset" />
          </mxGeometry>
        </mxCell>
        <mxCell id="bUCBHGYr6xIvT3issKBq-33" value="" style="endArrow=classic;html=1;rounded=0;exitX=1;exitY=0.5;exitDx=0;exitDy=0;dashed=1;edgeStyle=orthogonalEdgeStyle;curved=1;entryX=0.729;entryY=0.98;entryDx=0;entryDy=0;entryPerimeter=0;" edge="1" parent="1">
          <mxGeometry width="50" height="50" relative="1" as="geometry">
            <mxPoint x="400" y="616.6" as="sourcePoint" />
            <mxPoint x="577.48" y="160.00000000000003" as="targetPoint" />
          </mxGeometry>
        </mxCell>
        <mxCell id="bUCBHGYr6xIvT3issKBq-34" value="&amp;lt;&amp;lt;include&amp;gt;&amp;gt;" style="edgeLabel;html=1;align=center;verticalAlign=middle;resizable=0;points=[];" vertex="1" connectable="0" parent="bUCBHGYr6xIvT3issKBq-33">
          <mxGeometry x="-0.1136" y="2" relative="1" as="geometry">
            <mxPoint x="-46" as="offset" />
          </mxGeometry>
        </mxCell>
        <mxCell id="bUCBHGYr6xIvT3issKBq-35" value="" style="endArrow=classic;html=1;rounded=0;exitX=1.006;exitY=0.563;exitDx=0;exitDy=0;dashed=1;edgeStyle=orthogonalEdgeStyle;curved=1;exitPerimeter=0;" edge="1" parent="1" source="bUCBHGYr6xIvT3issKBq-12">
          <mxGeometry width="50" height="50" relative="1" as="geometry">
            <mxPoint x="410" y="710" as="sourcePoint" />
            <mxPoint x="590" y="150" as="targetPoint" />
          </mxGeometry>
        </mxCell>
        <mxCell id="bUCBHGYr6xIvT3issKBq-36" value="&amp;lt;&amp;lt;include&amp;gt;&amp;gt;" style="edgeLabel;html=1;align=center;verticalAlign=middle;resizable=0;points=[];" vertex="1" connectable="0" parent="bUCBHGYr6xIvT3issKBq-35">
          <mxGeometry x="-0.1136" y="2" relative="1" as="geometry">
            <mxPoint x="-48" y="18" as="offset" />
          </mxGeometry>
        </mxCell>
        <mxCell id="bUCBHGYr6xIvT3issKBq-40" value="Professor" style="shape=table;startSize=30;container=1;collapsible=1;childLayout=tableLayout;fixedRows=1;rowLines=0;fontStyle=1;align=center;resizeLast=1;html=1;" vertex="1" parent="1">
          <mxGeometry x="1460" y="170" width="180" height="150" as="geometry" />
        </mxCell>
        <mxCell id="bUCBHGYr6xIvT3issKBq-41" value="" style="shape=tableRow;horizontal=0;startSize=0;swimlaneHead=0;swimlaneBody=0;fillColor=none;collapsible=0;dropTarget=0;points=[[0,0.5],[1,0.5]];portConstraint=eastwest;top=0;left=0;right=0;bottom=1;" vertex="1" parent="bUCBHGYr6xIvT3issKBq-40">
          <mxGeometry y="30" width="180" height="30" as="geometry" />
        </mxCell>
        <mxCell id="bUCBHGYr6xIvT3issKBq-42" value="PK" style="shape=partialRectangle;connectable=0;fillColor=none;top=0;left=0;bottom=0;right=0;fontStyle=1;overflow=hidden;whiteSpace=wrap;html=1;" vertex="1" parent="bUCBHGYr6xIvT3issKBq-41">
          <mxGeometry width="30" height="30" as="geometry">
            <mxRectangle width="30" height="30" as="alternateBounds" />
          </mxGeometry>
        </mxCell>
        <mxCell id="bUCBHGYr6xIvT3issKBq-43" value="professorId: INT" style="shape=partialRectangle;connectable=0;fillColor=none;top=0;left=0;bottom=0;right=0;align=left;spacingLeft=6;fontStyle=5;overflow=hidden;whiteSpace=wrap;html=1;" vertex="1" parent="bUCBHGYr6xIvT3issKBq-41">
          <mxGeometry x="30" width="150" height="30" as="geometry">
            <mxRectangle width="150" height="30" as="alternateBounds" />
          </mxGeometry>
        </mxCell>
        <mxCell id="bUCBHGYr6xIvT3issKBq-44" value="" style="shape=tableRow;horizontal=0;startSize=0;swimlaneHead=0;swimlaneBody=0;fillColor=none;collapsible=0;dropTarget=0;points=[[0,0.5],[1,0.5]];portConstraint=eastwest;top=0;left=0;right=0;bottom=0;" vertex="1" parent="bUCBHGYr6xIvT3issKBq-40">
          <mxGeometry y="60" width="180" height="30" as="geometry" />
        </mxCell>
        <mxCell id="bUCBHGYr6xIvT3issKBq-45" value="" style="shape=partialRectangle;connectable=0;fillColor=none;top=0;left=0;bottom=0;right=0;editable=1;overflow=hidden;whiteSpace=wrap;html=1;" vertex="1" parent="bUCBHGYr6xIvT3issKBq-44">
          <mxGeometry width="30" height="30" as="geometry">
            <mxRectangle width="30" height="30" as="alternateBounds" />
          </mxGeometry>
        </mxCell>
        <mxCell id="bUCBHGYr6xIvT3issKBq-46" value="nome: VARCHAR(255)" style="shape=partialRectangle;connectable=0;fillColor=none;top=0;left=0;bottom=0;right=0;align=left;spacingLeft=6;overflow=hidden;whiteSpace=wrap;html=1;" vertex="1" parent="bUCBHGYr6xIvT3issKBq-44">
          <mxGeometry x="30" width="150" height="30" as="geometry">
            <mxRectangle width="150" height="30" as="alternateBounds" />
          </mxGeometry>
        </mxCell>
        <mxCell id="bUCBHGYr6xIvT3issKBq-47" value="" style="shape=tableRow;horizontal=0;startSize=0;swimlaneHead=0;swimlaneBody=0;fillColor=none;collapsible=0;dropTarget=0;points=[[0,0.5],[1,0.5]];portConstraint=eastwest;top=0;left=0;right=0;bottom=0;" vertex="1" parent="bUCBHGYr6xIvT3issKBq-40">
          <mxGeometry y="90" width="180" height="30" as="geometry" />
        </mxCell>
        <mxCell id="bUCBHGYr6xIvT3issKBq-48" value="" style="shape=partialRectangle;connectable=0;fillColor=none;top=0;left=0;bottom=0;right=0;editable=1;overflow=hidden;whiteSpace=wrap;html=1;" vertex="1" parent="bUCBHGYr6xIvT3issKBq-47">
          <mxGeometry width="30" height="30" as="geometry">
            <mxRectangle width="30" height="30" as="alternateBounds" />
          </mxGeometry>
        </mxCell>
        <mxCell id="bUCBHGYr6xIvT3issKBq-49" value="email: VARCHAR(255)" style="shape=partialRectangle;connectable=0;fillColor=none;top=0;left=0;bottom=0;right=0;align=left;spacingLeft=6;overflow=hidden;whiteSpace=wrap;html=1;" vertex="1" parent="bUCBHGYr6xIvT3issKBq-47">
          <mxGeometry x="30" width="150" height="30" as="geometry">
            <mxRectangle width="150" height="30" as="alternateBounds" />
          </mxGeometry>
        </mxCell>
        <mxCell id="bUCBHGYr6xIvT3issKBq-50" value="" style="shape=tableRow;horizontal=0;startSize=0;swimlaneHead=0;swimlaneBody=0;fillColor=none;collapsible=0;dropTarget=0;points=[[0,0.5],[1,0.5]];portConstraint=eastwest;top=0;left=0;right=0;bottom=0;" vertex="1" parent="bUCBHGYr6xIvT3issKBq-40">
          <mxGeometry y="120" width="180" height="30" as="geometry" />
        </mxCell>
        <mxCell id="bUCBHGYr6xIvT3issKBq-51" value="" style="shape=partialRectangle;connectable=0;fillColor=none;top=0;left=0;bottom=0;right=0;editable=1;overflow=hidden;whiteSpace=wrap;html=1;" vertex="1" parent="bUCBHGYr6xIvT3issKBq-50">
          <mxGeometry width="30" height="30" as="geometry">
            <mxRectangle width="30" height="30" as="alternateBounds" />
          </mxGeometry>
        </mxCell>
        <mxCell id="bUCBHGYr6xIvT3issKBq-52" value="senha: VARCHAR(255)" style="shape=partialRectangle;connectable=0;fillColor=none;top=0;left=0;bottom=0;right=0;align=left;spacingLeft=6;overflow=hidden;whiteSpace=wrap;html=1;" vertex="1" parent="bUCBHGYr6xIvT3issKBq-50">
          <mxGeometry x="30" width="150" height="30" as="geometry">
            <mxRectangle width="150" height="30" as="alternateBounds" />
          </mxGeometry>
        </mxCell>
        <mxCell id="bUCBHGYr6xIvT3issKBq-53" value="Turma" style="shape=table;startSize=30;container=1;collapsible=1;childLayout=tableLayout;fixedRows=1;rowLines=0;fontStyle=1;align=center;resizeLast=1;html=1;whiteSpace=wrap;" vertex="1" parent="1">
          <mxGeometry x="1160" y="200" width="210" height="120" as="geometry" />
        </mxCell>
        <mxCell id="bUCBHGYr6xIvT3issKBq-54" value="" style="shape=tableRow;horizontal=0;startSize=0;swimlaneHead=0;swimlaneBody=0;fillColor=none;collapsible=0;dropTarget=0;points=[[0,0.5],[1,0.5]];portConstraint=eastwest;top=0;left=0;right=0;bottom=0;html=1;" vertex="1" parent="bUCBHGYr6xIvT3issKBq-53">
          <mxGeometry y="30" width="210" height="30" as="geometry" />
        </mxCell>
        <mxCell id="bUCBHGYr6xIvT3issKBq-55" value="PK" style="shape=partialRectangle;connectable=0;fillColor=none;top=0;left=0;bottom=0;right=0;fontStyle=1;overflow=hidden;html=1;whiteSpace=wrap;" vertex="1" parent="bUCBHGYr6xIvT3issKBq-54">
          <mxGeometry width="60" height="30" as="geometry">
            <mxRectangle width="60" height="30" as="alternateBounds" />
          </mxGeometry>
        </mxCell>
        <mxCell id="bUCBHGYr6xIvT3issKBq-56" value="turmaId: INT" style="shape=partialRectangle;connectable=0;fillColor=none;top=0;left=0;bottom=0;right=0;align=left;spacingLeft=6;fontStyle=5;overflow=hidden;html=1;whiteSpace=wrap;" vertex="1" parent="bUCBHGYr6xIvT3issKBq-54">
          <mxGeometry x="60" width="150" height="30" as="geometry">
            <mxRectangle width="150" height="30" as="alternateBounds" />
          </mxGeometry>
        </mxCell>
        <mxCell id="bUCBHGYr6xIvT3issKBq-57" value="" style="shape=tableRow;horizontal=0;startSize=0;swimlaneHead=0;swimlaneBody=0;fillColor=none;collapsible=0;dropTarget=0;points=[[0,0.5],[1,0.5]];portConstraint=eastwest;top=0;left=0;right=0;bottom=1;html=1;" vertex="1" parent="bUCBHGYr6xIvT3issKBq-53">
          <mxGeometry y="60" width="210" height="30" as="geometry" />
        </mxCell>
        <mxCell id="bUCBHGYr6xIvT3issKBq-58" value="FK" style="shape=partialRectangle;connectable=0;fillColor=none;top=0;left=0;bottom=0;right=0;fontStyle=1;overflow=hidden;html=1;whiteSpace=wrap;" vertex="1" parent="bUCBHGYr6xIvT3issKBq-57">
          <mxGeometry width="60" height="30" as="geometry">
            <mxRectangle width="60" height="30" as="alternateBounds" />
          </mxGeometry>
        </mxCell>
        <mxCell id="bUCBHGYr6xIvT3issKBq-59" value="professorId: INT" style="shape=partialRectangle;connectable=0;fillColor=none;top=0;left=0;bottom=0;right=0;align=left;spacingLeft=6;fontStyle=5;overflow=hidden;html=1;whiteSpace=wrap;" vertex="1" parent="bUCBHGYr6xIvT3issKBq-57">
          <mxGeometry x="60" width="150" height="30" as="geometry">
            <mxRectangle width="150" height="30" as="alternateBounds" />
          </mxGeometry>
        </mxCell>
        <mxCell id="bUCBHGYr6xIvT3issKBq-60" value="" style="shape=tableRow;horizontal=0;startSize=0;swimlaneHead=0;swimlaneBody=0;fillColor=none;collapsible=0;dropTarget=0;points=[[0,0.5],[1,0.5]];portConstraint=eastwest;top=0;left=0;right=0;bottom=0;html=1;" vertex="1" parent="bUCBHGYr6xIvT3issKBq-53">
          <mxGeometry y="90" width="210" height="30" as="geometry" />
        </mxCell>
        <mxCell id="bUCBHGYr6xIvT3issKBq-61" value="" style="shape=partialRectangle;connectable=0;fillColor=none;top=0;left=0;bottom=0;right=0;editable=1;overflow=hidden;html=1;whiteSpace=wrap;" vertex="1" parent="bUCBHGYr6xIvT3issKBq-60">
          <mxGeometry width="60" height="30" as="geometry">
            <mxRectangle width="60" height="30" as="alternateBounds" />
          </mxGeometry>
        </mxCell>
        <mxCell id="bUCBHGYr6xIvT3issKBq-62" value="nome: VARCHAR(255)" style="shape=partialRectangle;connectable=0;fillColor=none;top=0;left=0;bottom=0;right=0;align=left;spacingLeft=6;overflow=hidden;html=1;whiteSpace=wrap;" vertex="1" parent="bUCBHGYr6xIvT3issKBq-60">
          <mxGeometry x="60" width="150" height="30" as="geometry">
            <mxRectangle width="150" height="30" as="alternateBounds" />
          </mxGeometry>
        </mxCell>
        <mxCell id="bUCBHGYr6xIvT3issKBq-66" value="" style="edgeStyle=entityRelationEdgeStyle;fontSize=12;html=1;endArrow=ERoneToMany;rounded=0;entryX=1;entryY=0.5;entryDx=0;entryDy=0;exitX=0;exitY=0.5;exitDx=0;exitDy=0;" edge="1" parent="1" source="bUCBHGYr6xIvT3issKBq-41" target="bUCBHGYr6xIvT3issKBq-57">
          <mxGeometry width="100" height="100" relative="1" as="geometry">
            <mxPoint x="1100" y="350" as="sourcePoint" />
            <mxPoint x="1090" y="160" as="targetPoint" />
          </mxGeometry>
        </mxCell>
        <mxCell id="bUCBHGYr6xIvT3issKBq-67" value="Atividade" style="shape=table;startSize=30;container=1;collapsible=1;childLayout=tableLayout;fixedRows=1;rowLines=0;fontStyle=1;align=center;resizeLast=1;html=1;whiteSpace=wrap;" vertex="1" parent="1">
          <mxGeometry x="840" y="200" width="210" height="120" as="geometry" />
        </mxCell>
        <mxCell id="bUCBHGYr6xIvT3issKBq-68" value="" style="shape=tableRow;horizontal=0;startSize=0;swimlaneHead=0;swimlaneBody=0;fillColor=none;collapsible=0;dropTarget=0;points=[[0,0.5],[1,0.5]];portConstraint=eastwest;top=0;left=0;right=0;bottom=0;html=1;" vertex="1" parent="bUCBHGYr6xIvT3issKBq-67">
          <mxGeometry y="30" width="210" height="30" as="geometry" />
        </mxCell>
        <mxCell id="bUCBHGYr6xIvT3issKBq-69" value="PK" style="shape=partialRectangle;connectable=0;fillColor=none;top=0;left=0;bottom=0;right=0;fontStyle=1;overflow=hidden;html=1;whiteSpace=wrap;" vertex="1" parent="bUCBHGYr6xIvT3issKBq-68">
          <mxGeometry width="60" height="30" as="geometry">
            <mxRectangle width="60" height="30" as="alternateBounds" />
          </mxGeometry>
        </mxCell>
        <mxCell id="bUCBHGYr6xIvT3issKBq-70" value="atividadeId: INT" style="shape=partialRectangle;connectable=0;fillColor=none;top=0;left=0;bottom=0;right=0;align=left;spacingLeft=6;fontStyle=5;overflow=hidden;html=1;whiteSpace=wrap;" vertex="1" parent="bUCBHGYr6xIvT3issKBq-68">
          <mxGeometry x="60" width="150" height="30" as="geometry">
            <mxRectangle width="150" height="30" as="alternateBounds" />
          </mxGeometry>
        </mxCell>
        <mxCell id="bUCBHGYr6xIvT3issKBq-71" value="" style="shape=tableRow;horizontal=0;startSize=0;swimlaneHead=0;swimlaneBody=0;fillColor=none;collapsible=0;dropTarget=0;points=[[0,0.5],[1,0.5]];portConstraint=eastwest;top=0;left=0;right=0;bottom=1;html=1;" vertex="1" parent="bUCBHGYr6xIvT3issKBq-67">
          <mxGeometry y="60" width="210" height="30" as="geometry" />
        </mxCell>
        <mxCell id="bUCBHGYr6xIvT3issKBq-72" value="FK" style="shape=partialRectangle;connectable=0;fillColor=none;top=0;left=0;bottom=0;right=0;fontStyle=1;overflow=hidden;html=1;whiteSpace=wrap;" vertex="1" parent="bUCBHGYr6xIvT3issKBq-71">
          <mxGeometry width="60" height="30" as="geometry">
            <mxRectangle width="60" height="30" as="alternateBounds" />
          </mxGeometry>
        </mxCell>
        <mxCell id="bUCBHGYr6xIvT3issKBq-73" value="turmaId: INT" style="shape=partialRectangle;connectable=0;fillColor=none;top=0;left=0;bottom=0;right=0;align=left;spacingLeft=6;fontStyle=5;overflow=hidden;html=1;whiteSpace=wrap;" vertex="1" parent="bUCBHGYr6xIvT3issKBq-71">
          <mxGeometry x="60" width="150" height="30" as="geometry">
            <mxRectangle width="150" height="30" as="alternateBounds" />
          </mxGeometry>
        </mxCell>
        <mxCell id="bUCBHGYr6xIvT3issKBq-74" value="" style="shape=tableRow;horizontal=0;startSize=0;swimlaneHead=0;swimlaneBody=0;fillColor=none;collapsible=0;dropTarget=0;points=[[0,0.5],[1,0.5]];portConstraint=eastwest;top=0;left=0;right=0;bottom=0;html=1;" vertex="1" parent="bUCBHGYr6xIvT3issKBq-67">
          <mxGeometry y="90" width="210" height="30" as="geometry" />
        </mxCell>
        <mxCell id="bUCBHGYr6xIvT3issKBq-75" value="" style="shape=partialRectangle;connectable=0;fillColor=none;top=0;left=0;bottom=0;right=0;editable=1;overflow=hidden;html=1;whiteSpace=wrap;" vertex="1" parent="bUCBHGYr6xIvT3issKBq-74">
          <mxGeometry width="60" height="30" as="geometry">
            <mxRectangle width="60" height="30" as="alternateBounds" />
          </mxGeometry>
        </mxCell>
        <mxCell id="bUCBHGYr6xIvT3issKBq-76" value="descricao: VARCHAR(255)" style="shape=partialRectangle;connectable=0;fillColor=none;top=0;left=0;bottom=0;right=0;align=left;spacingLeft=6;overflow=hidden;html=1;whiteSpace=wrap;" vertex="1" parent="bUCBHGYr6xIvT3issKBq-74">
          <mxGeometry x="60" width="150" height="30" as="geometry">
            <mxRectangle width="150" height="30" as="alternateBounds" />
          </mxGeometry>
        </mxCell>
        <mxCell id="bUCBHGYr6xIvT3issKBq-77" value="" style="edgeStyle=entityRelationEdgeStyle;fontSize=12;html=1;endArrow=ERoneToMany;rounded=0;entryX=1;entryY=0.5;entryDx=0;entryDy=0;exitX=0;exitY=0.5;exitDx=0;exitDy=0;" edge="1" parent="1" source="bUCBHGYr6xIvT3issKBq-54" target="bUCBHGYr6xIvT3issKBq-71">
          <mxGeometry width="100" height="100" relative="1" as="geometry">
            <mxPoint x="1470" y="225" as="sourcePoint" />
            <mxPoint x="1380" y="285" as="targetPoint" />
          </mxGeometry>
        </mxCell>
        <mxCell id="bUCBHGYr6xIvT3issKBq-78" value="&lt;b&gt;Diagrama fÃ­sico&lt;/b&gt;" style="text;html=1;align=center;verticalAlign=middle;resizable=0;points=[];autosize=1;strokeColor=none;fillColor=none;" vertex="1" parent="1">
          <mxGeometry x="1186" y="100" width="110" height="30" as="geometry" />
        </mxCell>
        <mxCell id="bUCBHGYr6xIvT3issKBq-79" value="&lt;b&gt;Diagrama de casos de uso&lt;/b&gt;" style="text;html=1;align=center;verticalAlign=middle;resizable=0;points=[];autosize=1;strokeColor=none;fillColor=none;" vertex="1" parent="1">
          <mxGeometry x="280" y="-30" width="170" height="30" as="geometry" />
        </mxCell>
      </root>
    </mxGraphModel>
  </diagram>
</mxfile>
